<svg width="80" height="80" viewBox="0 0 80 80" fill="none" xmlns="http://www.w3.org/2000/svg">
<path fill-rule="evenodd" clip-rule="evenodd" d="M26.535 3.13672C26.5372 3.95828 26.2644 4.6675 25.7166 5.26406L34.0003 12.8739H45.4938L53.7778 5.26406C53.23 4.6675 52.9572 3.95828 52.9594 3.13672C52.9591 2.27437 53.2648 1.53781 53.8777 0.927343C54.4886 0.311875 55.225 0.0025 56.0875 0C56.9527 0.0025 57.6922 0.311875 58.3058 0.927343C58.9186 1.53781 59.2244 2.27453 59.2244 3.13672C59.2244 4.00187 58.9186 4.74141 58.3058 5.355C57.692 5.96734 56.9527 6.27344 56.0875 6.27344C55.6181 6.27266 55.1875 6.18172 54.7963 6.00062L51.668 12.8739H55.7055C57.9298 12.8739 59.8302 13.662 61.4067 15.2378C62.983 16.8111 63.7709 18.7084 63.7709 20.9295V29.5033L67.1989 25.2209H69.2084V36.7769H67.1989L63.7709 32.4945V38.0131H15.7323V32.4851L12.2953 36.7769H10.2858V25.2209H12.2953L15.7323 29.5122V20.9295C15.7323 18.7084 16.5203 16.8112 18.0966 15.2378C19.6731 13.662 21.5736 12.8739 23.798 12.8739H27.8259L24.6981 6.00062C24.3064 6.18172 23.8759 6.27266 23.4067 6.27344C22.5414 6.27344 21.8019 5.96734 21.188 5.355C20.5755 4.74125 20.2695 4.00187 20.2697 3.13672C20.2695 2.27437 20.5755 1.53781 21.188 0.927343C21.802 0.311875 22.5414 0.0025 23.4067 0C24.2691 0.0025 25.0053 0.311875 25.6164 0.927343C26.2291 1.53781 26.5351 2.27437 26.535 3.13672ZM32.5544 24.5662C31.7816 23.7909 30.845 23.4031 29.7448 23.4025C28.6414 23.4031 27.702 23.7909 26.9259 24.5662C26.1506 25.3419 25.7626 26.2817 25.762 27.3847C25.7626 28.4847 26.1506 29.4211 26.9259 30.1939C27.702 30.9692 28.6414 31.357 29.7448 31.3576C30.845 31.357 31.7816 30.9692 32.5544 30.1939C33.3297 29.4211 33.7178 28.4847 33.7183 27.3847C33.7178 26.2817 33.3297 25.3419 32.5544 24.5662ZM52.5588 30.1941C53.3342 29.4212 53.722 28.4848 53.723 27.3848C53.722 26.2817 53.3342 25.342 52.5588 24.5664C51.7861 23.7911 50.8495 23.4033 49.7494 23.4027C48.6458 23.4033 47.7066 23.7911 46.9305 24.5664C46.1553 25.342 45.7675 26.2819 45.7666 27.3848C45.7675 28.4848 46.1553 29.4212 46.9305 30.1941C47.7066 30.9694 48.6459 31.3572 49.7494 31.3578C50.8494 31.3572 51.7861 30.9694 52.5588 30.1941Z" fill="white"/>
<path fill-rule="evenodd" clip-rule="evenodd" d="M15.7323 43.632V40.5955H29.4173C29.8759 41.2833 30.4154 41.938 31.0357 42.5589C33.4464 44.9677 36.3531 46.1708 39.756 46.1684C43.1609 46.1709 46.0643 44.9677 48.467 42.5589C49.0904 41.9378 49.6331 41.2833 50.0951 40.5955H63.7706V43.632C63.7706 45.8592 62.9826 47.7625 61.4063 49.3419C59.879 50.8686 58.0485 51.6564 55.9145 51.7058H23.7979C21.5735 51.7058 19.6731 50.9177 18.0965 49.3419C16.5203 47.7623 15.7323 45.8592 15.7323 43.632Z" fill="white"/>
<path fill-rule="evenodd" clip-rule="evenodd" d="M27.7444 54.2241L27.7534 54.2334C35.7128 54.2334 43.6724 54.2334 51.6317 54.2334C51.6286 55.4998 51.6256 56.767 51.6222 58.0334H27.7444V54.2241Z" fill="white"/>
</svg>
