<svg width="100" height="100" viewBox="0 0 100 100" fill="none" xmlns="http://www.w3.org/2000/svg">
<path fill-rule="evenodd" clip-rule="evenodd" d="M33.1687 3.9209C33.1714 4.94785 32.8304 5.83437 32.1457 6.58008L42.5004 16.0924H56.8672L67.2222 6.58008C66.5375 5.83437 66.1965 4.94785 66.1992 3.9209C66.1988 2.84297 66.581 1.92226 67.347 1.15918C68.1107 0.389843 69.0312 0.003125 70.1093 0C71.1908 0.003125 72.1152 0.389843 72.8822 1.15918C73.6482 1.92226 74.0304 2.84316 74.0304 3.9209C74.0304 5.00234 73.6482 5.92676 72.8822 6.69375C72.115 7.45918 71.1908 7.8418 70.1093 7.8418C69.5226 7.84082 68.9843 7.72715 68.4953 7.50078L64.5849 16.0924H69.6318C72.4123 16.0924 74.7877 17.0775 76.7584 19.0473C78.7287 21.0139 79.7136 23.3855 79.7136 26.1619V36.8791L83.9986 31.5262H86.5105V45.9711H83.9986L79.7136 40.6182V47.5164H19.6654V40.6064L15.3691 45.9711H12.8572V31.5262H15.3691L19.6654 36.8902V26.1619C19.6654 23.3855 20.6503 21.0141 22.6207 19.0473C24.5914 17.0775 26.9669 16.0924 29.7474 16.0924H34.7824L30.8726 7.50078C30.383 7.72715 29.8449 7.84082 29.2584 7.8418C28.1767 7.8418 27.2523 7.45918 26.4849 6.69375C25.7193 5.92656 25.3369 5.00234 25.3371 3.9209C25.3369 2.84297 25.7193 1.92226 26.4849 1.15918C27.2525 0.389843 28.1767 0.003125 29.2584 0C30.3363 0.003125 31.2566 0.389843 32.0205 1.15918C32.7863 1.92226 33.1689 2.84297 33.1687 3.9209ZM40.6929 30.7078C39.7269 29.7387 38.5562 29.2539 37.181 29.2531C35.8017 29.2539 34.6275 29.7387 33.6574 30.7078C32.6882 31.6773 32.2033 32.8521 32.2025 34.2309C32.2033 35.6059 32.6882 36.7764 33.6574 37.7424C34.6275 38.7115 35.8017 39.1963 37.181 39.1971C38.5562 39.1963 39.7269 38.7115 40.6929 37.7424C41.6621 36.7764 42.1472 35.6059 42.1478 34.2309C42.1472 32.8521 41.6621 31.6773 40.6929 30.7078ZM65.6984 37.7426C66.6677 36.7766 67.1525 35.606 67.1537 34.231C67.1525 32.8521 66.6677 31.6775 65.6984 30.708C64.7326 29.7389 63.5619 29.2541 62.1867 29.2533C60.8072 29.2541 59.6332 29.7389 58.6631 30.708C57.6941 31.6775 57.2093 32.8523 57.2082 34.231C57.2093 35.606 57.6941 36.7766 58.6631 37.7426C59.6332 38.7117 60.8074 39.1965 62.1867 39.1973C63.5617 39.1965 64.7326 38.7117 65.6984 37.7426Z" fill="white"/>
<path fill-rule="evenodd" clip-rule="evenodd" d="M19.6654 54.54V50.7443H36.7716C37.3449 51.6041 38.0193 52.4225 38.7947 53.1986C41.808 56.2096 45.4414 57.7135 49.6951 57.7105C53.9511 57.7137 57.5804 56.2096 60.5837 53.1986C61.363 52.4223 62.0414 51.6041 62.6189 50.7443H79.7132V54.54C79.7132 57.324 78.7283 59.7031 76.758 61.6774C74.8488 63.5858 72.5607 64.5705 69.8931 64.6322H29.7474C26.967 64.6322 24.5914 63.6471 22.6207 61.6774C20.6504 59.7029 19.6654 57.324 19.6654 54.54Z" fill="white"/>
<path fill-rule="evenodd" clip-rule="evenodd" d="M34.6804 67.7801L34.6917 67.7918C44.641 67.7918 54.5904 67.7918 64.5396 67.7918C64.5357 69.3748 64.532 70.9588 64.5277 72.5418H34.6804V67.7801Z" fill="white"/>
</svg>
