<svg width="70" height="70" viewBox="0 0 70 70" fill="none" xmlns="http://www.w3.org/2000/svg">
<g clip-path="url(#clip0_20_131)">
<path d="M35 69.9994C54.33 69.9994 70 54.3293 70 34.9994C70 15.6694 54.33 -0.00062561 35 -0.00062561C15.67 -0.00062561 0 15.6694 0 34.9994C0 54.3293 15.67 69.9994 35 69.9994Z" fill="#DCDCDC"/>
<path d="M35 20.24C39.8 20.24 40.37 20.24 42.275 20.345C43.4178 20.3624 44.5492 20.5755 45.62 20.975C46.3972 21.2676 47.1029 21.7227 47.6901 22.3099C48.2773 22.8971 48.7324 23.6028 49.025 24.38C49.4245 25.4508 49.6376 26.5822 49.655 27.725C49.745 29.63 49.76 30.2 49.76 35C49.76 39.8 49.76 40.37 49.655 42.275C49.6376 43.4178 49.4245 44.5492 49.025 45.62C48.7324 46.3972 48.2773 47.1029 47.6901 47.6901C47.1029 48.2773 46.3972 48.7324 45.62 49.025C44.5492 49.4245 43.4178 49.6376 42.275 49.655C40.37 49.745 39.8 49.76 35 49.76C30.2 49.76 29.63 49.76 27.725 49.655C26.5822 49.6376 25.4508 49.4245 24.38 49.025C23.6028 48.7324 22.8971 48.2773 22.3099 47.6901C21.7227 47.1029 21.2676 46.3972 20.975 45.62C20.5755 44.5492 20.3624 43.4178 20.345 42.275C20.255 40.37 20.24 39.8 20.24 35C20.24 30.2 20.24 29.63 20.345 27.725C20.3624 26.5822 20.5755 25.4508 20.975 24.38C21.2676 23.6028 21.7227 22.8971 22.3099 22.3099C22.8971 21.7227 23.6028 21.2676 24.38 20.975C25.4508 20.5755 26.5822 20.3624 27.725 20.345C29.63 20.255 30.2 20.24 35 20.24ZM35 17C30.11 17 29.495 17 27.575 17.105C26.0829 17.1351 24.6067 17.4191 23.21 17.945C22.011 18.402 20.9221 19.1073 20.0147 20.0147C19.1073 20.9221 18.402 22.011 17.945 23.21C17.4191 24.6067 17.1351 26.0829 17.105 27.575C17 29.495 17 30.11 17 35C17 39.89 17 40.505 17.105 42.425C17.1351 43.9171 17.4191 45.3933 17.945 46.79C18.402 47.989 19.1073 49.0779 20.0147 49.9853C20.9221 50.8927 22.011 51.598 23.21 52.055C24.6067 52.5809 26.0829 52.8649 27.575 52.895C29.495 53 30.11 53 35 53C39.89 53 40.505 53 42.425 52.895C43.9171 52.8649 45.3933 52.5809 46.79 52.055C47.989 51.598 49.0779 50.8927 49.9853 49.9853C50.8927 49.0779 51.598 47.989 52.055 46.79C52.5726 45.4169 52.8565 43.9669 52.895 42.5C53 40.505 53 39.89 53 35C53 30.11 53 29.495 52.895 27.575C52.8649 26.0829 52.5809 24.6067 52.055 23.21C51.598 22.011 50.8927 20.9221 49.9853 20.0147C49.0779 19.1073 47.989 18.402 46.79 17.945C45.4169 17.4274 43.9669 17.1435 42.5 17.105C40.505 17 39.89 17 35 17ZM35 25.76C33.1725 25.76 31.386 26.3019 29.8665 27.3172C28.347 28.3325 27.1627 29.7756 26.4634 31.464C25.764 33.1524 25.581 35.0102 25.9375 36.8026C26.2941 38.595 27.1741 40.2414 28.4663 41.5337C29.7586 42.8259 31.405 43.7059 33.1974 44.0625C34.9898 44.419 36.8476 44.236 38.536 43.5366C40.2244 42.8373 41.6675 41.653 42.6828 40.1335C43.6981 38.614 44.24 36.8275 44.24 35C44.24 33.7866 44.001 32.5851 43.5366 31.464C43.0723 30.343 42.3917 29.3243 41.5337 28.4663C40.6757 27.6083 39.657 26.9277 38.536 26.4634C37.4149 25.999 36.2134 25.76 35 25.76ZM35 41C33.8133 41 32.6533 40.6481 31.6666 39.9888C30.6799 39.3295 29.9108 38.3925 29.4567 37.2961C29.0026 36.1997 28.8838 34.9933 29.1153 33.8295C29.3468 32.6656 29.9182 31.5965 30.7574 30.7574C31.5965 29.9182 32.6656 29.3468 33.8295 29.1153C34.9933 28.8838 36.1997 29.0026 37.2961 29.4567C38.3925 29.9108 39.3295 30.6799 39.9888 31.6666C40.6481 32.6533 41 33.8133 41 35C41 36.5913 40.3679 38.1174 39.2426 39.2426C38.1174 40.3679 36.5913 41 35 41ZM44.615 23.225C44.1878 23.225 43.7702 23.3517 43.415 23.589C43.0598 23.8264 42.7829 24.1637 42.6194 24.5584C42.4559 24.9531 42.4132 25.3874 42.4965 25.8064C42.5798 26.2254 42.7856 26.6103 43.0876 26.9124C43.3897 27.2144 43.7746 27.4202 44.1936 27.5035C44.6126 27.5868 45.0469 27.5441 45.4416 27.3806C45.8363 27.2171 46.1736 26.9402 46.411 26.585C46.6483 26.2298 46.775 25.8122 46.775 25.385C46.775 24.8121 46.5474 24.2627 46.1424 23.8576C45.7373 23.4526 45.1879 23.225 44.615 23.225Z" fill="black"/>
</g>
<defs>
<clipPath id="clip0_20_131">
<rect width="70" height="70" fill="white"/>
</clipPath>
</defs>
</svg>
