<svg width="70" height="70" viewBox="0 0 70 70" fill="none" xmlns="http://www.w3.org/2000/svg">
<g clip-path="url(#clip0_20_131)">
<path d="M35 69.9994C54.33 69.9994 70 54.3293 70 34.9994C70 15.6694 54.33 -0.00062561 35 -0.00062561C15.67 -0.00062561 0 15.6694 0 34.9994C0 54.3293 15.67 69.9994 35 69.9994Z" fill="#DCDCDC"/>
<path d="M55.9121 37.8157V52.2454H47.5462V38.7828C47.5462 35.4024 46.3383 33.094 43.3092 33.094C40.9976 33.094 39.6244 34.6481 39.018 36.153C38.7977 36.6908 38.7409 37.4376 38.7409 38.1919V52.2448H30.3743C30.3743 52.2448 30.4866 29.4435 30.3743 27.0832H38.7416V30.6489C38.7247 30.6769 38.701 30.7044 38.686 30.7312H38.7416V30.6489C39.8534 28.9381 41.8362 26.4924 46.2815 26.4924C51.7856 26.4924 55.9121 30.0886 55.9121 37.8157ZM21.6222 14.9545C18.7603 14.9545 16.8879 16.833 16.8879 19.3012C16.8879 21.717 18.706 23.6499 21.5123 23.6499H21.5666C24.4846 23.6499 26.299 21.717 26.299 19.3012C26.2434 16.833 24.4846 14.9545 21.6222 14.9545ZM17.3852 52.2454H25.7487V27.0832H17.3852V52.2454Z" fill="#080A12"/>
</g>
<defs>
<clipPath id="clip0_20_131">
<rect width="70" height="70" fill="white"/>
</clipPath>
</defs>
</svg>
