<svg width="70" height="70" viewBox="0 0 70 70" fill="none" xmlns="http://www.w3.org/2000/svg">
<path d="M35.0003 69.9994C54.3301 69.9994 70 54.3295 70 34.9997C70 15.6699 54.3301 0 35.0003 0C15.6705 0 0.000610352 15.6699 0.000610352 34.9997C0.000610352 54.3295 15.6705 69.9994 35.0003 69.9994Z" fill="#DCDCDC"/>
<path d="M56.4389 25.1533C54.939 25.8183 53.3256 26.2682 51.6336 26.4691C53.3612 25.434 54.687 23.7963 55.3128 21.8416C53.6962 22.8005 51.905 23.4962 50.0002 23.8711C48.4742 22.2459 46.2999 21.2302 43.8922 21.2302C39.2728 21.2302 35.5263 24.9767 35.5263 29.5961C35.5263 30.2518 35.6005 30.89 35.744 31.5027C28.7913 31.154 22.6265 27.8236 18.5 22.7606C17.78 23.9959 17.367 25.434 17.367 26.9669C17.367 29.8687 18.845 32.4305 21.0886 33.9303C19.7179 33.8873 18.427 33.5111 17.2996 32.8828C17.299 32.9184 17.299 32.9539 17.299 32.9889C17.299 37.0424 20.1839 40.4233 24.0103 41.1913C23.309 41.3835 22.5685 41.4852 21.8067 41.4852C21.2664 41.4852 20.7429 41.4334 20.2326 41.336C21.297 44.659 24.3859 47.0778 28.0476 47.1458C25.1839 49.39 21.5771 50.727 17.6565 50.727C16.9827 50.727 16.3151 50.6877 15.6619 50.6097C19.3622 52.9843 23.7607 54.3687 28.4849 54.3687C43.8729 54.3687 52.2881 41.6212 52.2881 30.565C52.2881 30.2025 52.28 29.8413 52.2637 29.4831C53.8996 28.304 55.3177 26.8309 56.4389 25.1533Z" fill="#080A12"/>
</svg>
